<svg version="1.2" xmlns="http://www.w3.org/2000/svg" viewBox="0 0 294 401" width="294" height="401">
	<title>crow</title>
	<defs>
		<linearGradient id="g1" x2="1" gradientUnits="userSpaceOnUse" gradientTransform="matrix(293.237,0,0,400.093,.7,200.728)">
			<stop offset="0" stop-color="#6e10f3"/>
			<stop offset="1" stop-color="#6e10f3"/>
		</linearGradient>
	</defs>
	<style>
		.s0 { fill: url(#g1) } 
	</style>
	<g id="OBJECTS">
		<g id="&lt;Group&gt;">
		</g>
		<g id="&lt;Group&gt;">
			<path id="&lt;Compound Path&gt;" fill-rule="evenodd" class="s0" d="m293.6 356.5c-3.6 1.8-25.5-7.6-23.2-8.5-13-0.8-21.5-13.8-29.5-18.7-8.1-4.9-27.3-12.5-27.3-12.5v-1.4c-13.3 3.3-21.5 0.1-27.5-1.8-1.3 8.2-1.8 19.3-2.5 21.6-1 3.3-10.4 16.8-10.6 19.1-0.3 2.2 14.5-5.6 19-5.4 4.6 0.3 8.9 5.1 7.4 5.9-1.5 0.7-4.6-0.3-6.1 2-1.5 2.2-4.3-1.8-6.6-2.3-2.3-0.5-10.9 3.8-12.5 5.9-1.5 2-8.3 14.2-9.4 17-1 2.8 0.6 5.8-0.5 9.1-1 3.3-7.3 4.8-8.9 6.4-1.5 1.5-1.7 7.1-3.8 7.8-2 0.8-3.5-11.6-1.2-15.5 2.2-3.8 16.2-19.3 15.7-22.1-0.5-2.7-25.1 14.3-26.7 17.8-1.5 3.6-0.2 3.3-1.2 5.9-1 2.5-5.6 3-6.9 4-1.3 1.1-1 7.4-2.3 7.7-1.2 0.2-4-6.1-2.8-12.2 1.3-6.1 7.7-11.2 7.7-11.2 0 0-6.9 3-8.2 5.8-1.2 2.8-5.1 3.3-6.8 4.1-1.8 0.8-3.8 7.6-5.4 8.1-2.3-2.8 0.8-16.5 5.1-18.5 4.3-2.1 42.3-17.8 42.3-17.8 0 0 9.7-9.6 15.9-22.7 3.2-6.8 3.1-15.3 2.3-21.8-7.2-0.3-21.8-2.7-21.8-2.7 0 0 0.9 5.4-2.2 8.5-3.2 3.1-7.2-3.1-9-6.7-1.8-3.6-11.6-4-25.9-11.6q0 0 0 0c-1.4 8.3-1.9 20.1-2.6 22.4-1 3.4-10.4 16.8-10.7 19.1-0.2 2.3 14.5-5.6 19.1-5.3 4.5 0.2 8.9 5 7.3 5.8-1.5 0.8-4.5-0.2-6.1 2-1.5 2.3-4.3-1.7-6.6-2.2-2.2-0.6-10.9 3.8-12.4 5.8-1.5 2-8.4 14.2-9.4 17-1 2.8 0.5 5.9-0.5 9.2-1 3.3-7.4 4.8-8.9 6.3-1.5 1.5-1.8 7.1-3.8 7.9-2 0.7-3.6-11.7-1.3-15.5 2.3-3.8 16.3-19.3 15.8-22.1-0.5-2.8-25.2 14.2-26.7 17.8-1.5 3.5-0.3 3.3-1.3 5.8-1 2.6-5.6 3.1-6.8 4.1-1.3 1-1.1 7.3-2.3 7.6-1.3 0.3-4.1-6.1-2.8-12.2 1.3-6.1 7.6-11.2 7.6-11.2 0 0-6.9 3.1-8.1 5.9-1.3 2.8-5.1 3.3-6.9 4-1.8 0.8-3.8 7.7-5.3 8.2-2.3-2.8 0.7-16.5 5.1-18.6 4.3-2 42.3-17.8 42.3-17.8 0 0 9.7-9.5 15.9-22.7 4-8.5 2.8-19.5 1.5-26.3-10.3-7.5-17.6-16.5-17.6-16.5 0 0 0.5 8.5-2.2 9.4-2.7 0.9-8.5-19.2-11.2-27.3-2.6-8-35.7-21-45.7-49.1-5.6-16-8.3-36-9.5-50.4-4.4 3.3-10 1.9-11.4 1.2-1.7-0.9-4-4.9-1.7-9.8 2.2-4.9 6.2-13.4 6.2-13.4 0 0-9.4 3.6-11.6 0-2.2-3.6 2.2-2.7 7.1-5.4 5-2.7 16.1-18.7 16.1-18.7 0 0-7.6 9.3-14.3 4.9 0 0-3.5 2.2-5.3 0-1.8-2.3 3.1-6.7 3.1-6.7 0 0-4.5 3.5-10.3 0-5.8-3.6 10.3-17.9 10.3-17.9 0 0-8 6.7-13 6.7-4.9 0 19.7-20.6 23.3-29.9 6.4-16.3 12-24.6 16-28.8-0.6-0.7-0.9-1.6-0.8-3 0.4-4.6 3.9-6.8 7.3-8-2.6 0.8-7.3 1.8-7.3-0.5 0-3.1 12.9-9.8 12.9-9.8 0 0-6.2-0.9-6.2-5.4 0-4.4 12-1.8 24.1 0 0 0 23.7-4.9 29.5-5.3 5.8-0.5 43.8-11.6 58.1-10.3 14.3 1.3 33.1 11.6 29.5 13.2-3 1.3-7.3-0.1-14.7 1.3q-0.1 0-0.3 0c-14 2.8-27.8 6.9-41.1 12.3-6.4 2.6-12.6 5.5-18.7 8.5-6.5 3.3-13.1 6.6-20.5 7.4-1.2 0.1-1.2 2.1 0 1.9 6.8-0.6 13-3.3 19-6.3 6.6-3.3 13.2-6.5 20-9.3 9.6-3.9 19.4-7.1 29.4-9.7-14.9 8.5-40.9 28.7-40.1 40.1 0.9 13.9 39.7 28.6 53.1 42.9 13.5 14.3 40.7 77.8 44.3 82.3 8.9 11.1 62.1 71 58.1 80-3.1 6.9-16.6-1.4-22.6-5.5 2.2 1.7 4.6 4.3 3.8 6.4-1.3 3.5-11.6-1.4-11.6-1.4 0 0 19.2 13 3.6 9.9-39.4-10.3-49.2-27.3-49.2-27.3-18.3 3.6-39-11.1-44.2-22.4-5.2-11.2-26-34.4-27.7-33.5-1.8 0.9 4.9 5.4 25 34.9 20.1 29.5 42 25.5 45.1 25.9 11.6 15.2 42.9 23.2 42.9 23.2l29.1 52.3c0 0 26.8 26.8 23.2 28.6zm-227.8-321c-0.9 1.8 13.4 10.2 18.6-4.3 1.2-3.5-12.6-5.1-18.6 4.3z"/>
		</g>
	</g>
</svg>