<svg version="1.2" xmlns="http://www.w3.org/2000/svg" viewBox="0 0 900 900" width="900" height="900">
	<title>crow-favicon</title>
	<defs>
		<clipPath clipPathUnits="userSpaceOnUse" id="cp1">
			<path d="m0 100c0-55.23 44.77-100 100-100h700c55.23 0 100 44.77 100 100v700c0 55.23-44.77 100-100 100h-700c-55.23 0-100-44.77-100-100z"/>
		</clipPath>
		<linearGradient id="g1" x2="1" gradientUnits="userSpaceOnUse" gradientTransform="matrix(900,0,0,900,0,450)">
			<stop offset="0" stop-color="#6e10f3"/>
			<stop offset="1" stop-color="#6e10f3"/>
		</linearGradient>
	</defs>
	<style>
		.s0 { fill: url(#g1) } 
		.s1 { fill: #ffffff } 
	</style>
	<g clip-path="url(#cp1)">
		<path id="Background" class="s0" d="m0 100c0-55.2 44.8-100 100-100h700c55.2 0 100 44.8 100 100v700c0 55.2-44.8 100-100 100h-700c-55.2 0-100-44.8-100-100z"/>
		<path id="&lt;Compound Path&gt;" fill-rule="evenodd" class="s1" d="m1327.4 1641.6c-16.1 8.1-114.7-34.1-104.6-38.2-58.4-4-96.6-62.3-132.8-84.5-36.2-22.1-122.7-56.3-122.7-56.3v-6c-60.1 14.7-96.7 0.5-123.8-8.3-5.9 37.1-8 87.1-11.1 97.3-4.6 14.9-46.9 75.5-48 85.8-1.2 10.3 65.1-25.2 85.7-24 20.6 1.1 40 22.8 33.2 26.3-6.9 3.4-20.6-1.2-27.5 9-6.8 10.1-19.4-7.9-29.7-10.2-10.3-2.3-49.2 17.2-56 26.3-6.9 9.2-37.7 64-42.3 76.6-4.6 12.6 2.3 26.3-2.3 41.2-4.6 14.8-33.2 21.7-40 28.6-6.9 6.8-8 32-17.2 35.4-9.1 3.4-16-52.6-5.7-69.7 10.3-17.2 73.2-86.9 70.9-99.5-2.3-12.6-113.2 64-120.1 80-6.8 16-1.1 14.9-5.7 26.3-4.5 11.5-25.1 13.7-30.8 18.3-5.8 4.6-4.6 33.2-10.3 34.3-5.7 1.2-18.3-27.4-12.6-54.9 5.7-27.4 34.3-50.3 34.3-50.3 0 0-30.9 13.8-36.6 26.3-5.7 12.6-22.9 14.9-30.9 18.3-8 3.5-17.1 34.3-24 36.6-10.3-12.6 3.5-74.3 22.9-83.5 19.4-9.1 190.5-80.1 190.5-80.1 0 0 43.6-43 71.4-102.2 14.4-30.6 14-68.5 10.2-98.1-32.4-1-97.9-12-97.9-12 0 0 4 24.2-10.1 38.3-14.1 14-32.2-14.1-40.2-30.2-8.1-16.1-52.3-18.1-116.7-52.3q0 0-0.1-0.1c-6.3 37.5-8.4 90.6-11.7 101.2-4.6 14.9-46.9 75.5-48 85.8-1.1 10.3 65.2-25.2 85.8-24 20.5 1.1 40 22.8 33.1 26.3-6.9 3.4-20.6-1.2-27.4 9-6.9 10.1-19.5-7.9-29.8-10.2-10.2-2.3-49.1 17.2-56 26.3-6.8 9.2-37.7 64-42.3 76.6-4.6 12.6 2.3 26.3-2.3 41.2-4.5 14.8-33.1 21.7-40 28.6-6.8 6.8-8 32-17.1 35.4-9.2 3.4-16-52.6-5.8-69.7 10.3-17.2 73.2-86.9 70.9-99.5-2.3-12.6-113.2 64-120 80-6.9 16-1.2 14.9-5.7 26.3-4.6 11.4-25.2 13.7-30.9 18.3-5.7 4.6-4.6 33.2-10.3 34.3-5.7 1.2-18.3-27.4-12.6-54.9 5.7-27.4 34.3-50.3 34.3-50.3 0 0-30.8 13.7-36.6 26.3-5.7 12.6-22.8 14.9-30.8 18.3-8 3.4-17.2 34.3-24 36.6-10.3-12.6 3.4-74.3 22.8-83.5 19.5-9.1 190.6-80.1 190.6-80.1 0 0 43.5-43 71.4-102.3 18-38.2 12.7-87.9 6.8-118.5-46.3-33.6-78.9-74-78.9-74 0 0 2 38.3-10.1 42.3-12.1 4-38.2-86.5-50.3-122.7-12-36.2-160.9-94.6-205.6-221.3-25.4-72-37.4-162.1-43-226.6-19.9 14.8-45.1 8.4-51.1 5.3-8-4-18.1-22.1-8-44.2 10-22.1 28.1-60.3 28.1-60.3 0 0-42.2 16-52.3 0-10-16.1 10.1-12.1 32.2-24.2 22.1-12.1 72.4-84.5 72.4-84.5 0 0-34.2 42.3-64.3 22.2 0 0-16.1 10-24.2 0-8-10.1 14.1-30.2 14.1-30.2 0 0-20.1 16.1-46.3 0-26.1-16.1 46.3-80.5 46.3-80.5 0 0-36.2 30.2-58.3 30.2-22.2 0 88.5-92.5 104.6-134.8 29-73.1 54-110.3 71.9-129.2-2.6-3.2-4-7.6-3.5-13.6 1.7-20.8 17.6-30.6 32.9-36-11.6 3.3-32.9 8.1-32.9-2.2 0-14.1 58.3-44.3 58.3-44.3 0 0-28.2-4-28.2-24.1 0-20.1 54.3-8 108.6 0 0 0 106.7-22.1 132.8-24.1 26.2-2 197.1-52.3 261.5-46.3 64.4 6 148.8 52.3 132.8 59.4-13.6 6-32.8-0.2-66 6-0.5-0.1-0.9-0.1-1.4 0-63.3 12.7-125.4 31.1-185.2 55.3-28.6 11.6-56.6 24.6-84.2 38.4-29.2 14.7-59 29.6-91.9 32.9-5.7 0.6-5.7 9.5 0 8.9 30.3-3 58-15 85.1-28.4 29.8-14.8 59.5-29.4 90.3-42 43.1-17.5 87.3-32.1 132.3-43.7-67.1 38.3-184.1 129.3-180.8 180.7 4.1 62.4 179.1 128.8 239.4 193.1 60.3 64.4 183 350 199.1 370.2 40 50 279.6 319.8 261.5 360-13.9 31-74.5-6.1-101.5-24.7 9.7 7.9 20.6 19.3 17 28.7-6 16.1-52.2-6-52.2-6 0 0 86.4 58.3 16 44.2-177-46.2-221.2-122.7-221.2-122.7-82.5 16.1-175.7-50-199.2-100.5-23.4-50.6-116.6-154.9-124.7-150.9-8 4 22.2 24.1 112.7 156.9 90.5 132.8 189.1 114.7 203.1 116.7 52.3 68.4 193.1 104.6 193.1 104.6l130.8 235.3c0 0 120.7 120.7 104.6 128.7zm-1025.4-1445.1c-4 8.1 60.4 46.3 83.5-19.1 5.6-15.8-56.3-23.1-83.5 19.1z"/>
	</g>
</svg>